<svg viewBox="0 0 12 12" xmlns="http://www.w3.org/2000/svg">
	<circle cx="6.09299" cy="11.1756" r="0.81626" />
	<path d="M6.59857 1.17331C5.89058 1.01654 4.92622 1.08371 3.8184 1.54456C3.56343 1.65062 3.27077 1.52992 3.1647 1.27496C3.05864 1.02 3.17935 0.727328 3.43431 0.621265C4.69356 0.0974168 5.86884 -0.0124932 6.81476 0.196958C7.75402 0.404936 8.51393 0.945679 8.8007 1.74918C9.31599 3.19295 8.66697 4.53549 7.63848 5.3959C7.19533 5.76663 6.93705 6.05028 6.78286 6.38681C6.62918 6.72224 6.55379 7.16687 6.59631 7.90081C6.61228 8.17649 6.40174 8.41292 6.12606 8.42889C5.85038 8.44486 5.61395 8.23432 5.59798 7.95864C5.55067 7.14194 5.62498 6.51321 5.87374 5.97028C6.12198 5.42846 6.51887 5.02876 6.99683 4.62891C7.81057 3.94815 8.19195 3.01851 7.85889 2.08531C7.72148 1.70032 7.31321 1.33155 6.59857 1.17331Z"/>
</svg>