<svg viewBox="0 0 12 12" xmlns="http://www.w3.org/2000/svg">
<path d="M3.12941 1.90592C4.06344 1.25097 5.19335 0.935123 6.3316 1.01079C7.46986 1.08646 8.54802 1.5491 9.38714 2.32192C10.2263 3.09474 10.7759 4.13127 10.9448 5.25949C11.1137 6.38771 10.8918 7.53977 10.3158 8.52448C9.73981 9.50918 8.84442 10.2673 7.77824 10.673C6.71206 11.0788 5.5392 11.1077 4.45431 10.7551C3.36942 10.4024 2.43773 9.68936 1.81388 8.73426C1.66287 8.50307 1.35303 8.43807 1.12184 8.58908C0.890652 8.7401 0.825655 9.04994 0.976667 9.28114C1.72529 10.4273 2.84331 11.2829 4.14518 11.7061C5.44705 12.1293 6.85448 12.0946 8.1339 11.6077C9.41332 11.1208 10.4878 10.211 11.179 9.0294C11.8701 7.84775 12.1365 6.46528 11.9338 5.11141C11.7311 3.75755 11.0715 2.51371 10.0646 1.58632C9.05763 0.658939 7.76384 0.103777 6.39793 0.0129751C5.03203 -0.0778269 3.67614 0.301192 2.5553 1.08713C1.43446 1.87306 0.616064 3.01865 0.235944 4.33377C0.159266 4.59906 0.312158 4.87628 0.57744 4.95296C0.842721 5.02964 1.11993 4.87674 1.19661 4.61146C1.51338 3.51552 2.19537 2.56086 3.12941 1.90592Z"/>
<path d="M0.501218 0.499539C0.225077 0.499539 0.0012207 0.723401 0.0012207 0.999549L0.00128269 4.49961C0.00128269 4.64297 0.0628072 4.77942 0.170235 4.87433C0.277662 4.96924 0.420658 5.01348 0.562912 4.99581L3.82849 4.61146C4.10252 4.57742 4.29708 4.32767 4.26304 4.05363C4.229 3.77958 3.97926 3.58502 3.70522 3.61906L1.00128 3.93366L1.00121 0.999549C1.00121 0.723401 0.777359 0.499539 0.501218 0.499539Z"/>
<path d="M6.00122 2.99976C6.27736 2.99976 6.50122 3.22361 6.50122 3.49976V5.99976H8.50122C8.77736 5.99976 9.00122 6.22361 9.00122 6.49976C9.00122 6.7759 8.77736 6.99976 8.50122 6.99976H6.00122C5.72508 6.99976 5.50122 6.7759 5.50122 6.49976V3.49976C5.50122 3.22361 5.72508 2.99976 6.00122 2.99976Z"/>
</svg>