<svg viewBox="0 0 12 12" xmlns="http://www.w3.org/2000/svg">
	<path d="M2.46967 2.46967C2.76256 2.17678 3.23744 2.17678 3.53033 2.46967L6 4.93934L8.46967 2.46967C8.76256 2.17678 9.23744 2.17678 9.53033 2.46967C9.82322 2.76256 9.82322 3.23744 9.53033 3.53033L7.06066 6L9.53033 8.46967C9.82322 8.76256 9.82322 9.23744 9.53033 9.53033C9.23744 9.82322 8.76256 9.82322 8.46967 9.53033L6 7.06066L3.53033 9.53033C3.23744 9.82322 2.76256 9.82322 2.46967 9.53033C2.17678 9.23744 2.17678 8.76256 2.46967 8.46967L4.93934 6L2.46967 3.53033C2.17678 3.23744 2.17678 2.76256 2.46967 2.46967Z"/>
</svg>