<svg viewBox="0 0 12 12" xmlns="http://www.w3.org/2000/svg">
	<path d="M9.30001 0C9.43262 0 9.5598 0.0526784 9.65357 0.146447L11.8536 2.34645C12.0488 2.54171 12.0488 2.85829 11.8536 3.05355L4.15357 10.7536C4.09868 10.8084 4.03177 10.8498 3.95813 10.8743L0.658127 11.9743C0.47846 12.0342 0.280376 11.9875 0.14646 11.8536C0.012544 11.7196 -0.0342172 11.5216 0.0256719 11.3419L1.12567 8.04189C1.15022 7.96825 1.19157 7.90133 1.24646 7.84645L8.94646 0.146447C9.04023 0.0526784 9.16741 0 9.30001 0ZM2.03703 8.47009L1.29058 10.7094L3.52992 9.96299L10.7929 2.7L9.30001 1.20711L2.03703 8.47009Z"/>
</svg>