<svg viewBox="0 0 12 12" xmlns="http://www.w3.org/2000/svg">
	<path d="M7.08273 7.08303C7.27799 6.88777 7.59457 6.88777 7.78983 7.08303L11.8534 11.1466C12.0486 11.3418 12.0486 11.6584 11.8534 11.8537C11.6581 12.0489 11.3415 12.0489 11.1463 11.8537L7.08273 7.79014C6.88746 7.59488 6.88746 7.2783 7.08273 7.08303Z"/>
	<path d="M4.56354 1C2.59545 1 1 2.59545 1 4.56354C1 6.53163 2.59545 8.12708 4.56354 8.12708C6.53163 8.12708 8.12708 6.53163 8.12708 4.56354C8.12708 2.59545 6.53163 1 4.56354 1ZM0 4.56354C0 2.04317 2.04317 0 4.56354 0C7.08391 0 9.12708 2.04317 9.12708 4.56354C9.12708 7.08391 7.08391 9.12708 4.56354 9.12708C2.04317 9.12708 0 7.08391 0 4.56354Z"/>
</svg>