<svg viewBox="0 0 12 12" xmlns="http://www.w3.org/2000/svg">
	<path d="M6 1C5.17157 1 4.5 1.67157 4.5 2.5C4.5 3.32843 5.17157 4 6 4C6.82843 4 7.5 3.32843 7.5 2.5C7.5 1.67157 6.82843 1 6 1ZM3.5 2.5C3.5 1.11929 4.61929 0 6 0C7.38071 0 8.5 1.11929 8.5 2.5C8.5 3.88071 7.38071 5 6 5C4.61929 5 3.5 3.88071 3.5 2.5Z"/>
	<path d="M3.89524 6.41866C4.56253 6.14226 5.27773 6 6 6C7.45869 6 8.85764 6.57946 9.88909 7.61091C10.9205 8.64236 11.5 10.0413 11.5 11.5C11.5 11.7761 11.2761 12 11 12H1C0.867392 12 0.740215 11.9473 0.646447 11.8536C0.552678 11.7598 0.5 11.6326 0.5 11.5C0.5 10.0413 1.07946 8.64236 2.11091 7.61091C2.62163 7.10019 3.22795 6.69506 3.89524 6.41866ZM6 7C5.40905 7 4.82389 7.1164 4.27792 7.34254C3.73196 7.56869 3.23588 7.90016 2.81802 8.31802C2.09281 9.04323 1.64069 9.99049 1.52785 11H10.4722C10.3593 9.99049 9.90719 9.04323 9.18198 8.31802C8.33807 7.47411 7.19347 7 6 7Z"/>
</svg>