<svg viewBox="0 0 12 12" xmlns="http://www.w3.org/2000/svg">
	<path d="M4 0.5C4 0.223858 4.22386 0 4.5 0H7.5C7.77614 0 8 0.223858 8 0.5V2H11.5C11.7761 2 12 2.22386 12 2.5C12 2.77614 11.7761 3 11.5 3H0.5C0.223858 3 0 2.77614 0 2.5C0 2.22386 0.223858 2 0.5 2H4V0.5ZM5 2H7V1H5V2ZM2.5 4C2.77614 4 3 4.22386 3 4.5V10.5C3 10.6326 3.05268 10.7598 3.14645 10.8536C3.24021 10.9473 3.36739 11 3.5 11H8.5C8.63261 11 8.75978 10.9473 8.85355 10.8536C8.94732 10.7598 9 10.6326 9 10.5V4.5C9 4.22386 9.22386 4 9.5 4C9.77614 4 10 4.22386 10 4.5V10.5C10 10.8978 9.84196 11.2794 9.56066 11.5607C9.27936 11.842 8.89783 12 8.5 12H3.5C3.10217 12 2.72064 11.842 2.43934 11.5607C2.15804 11.2794 2 10.8978 2 10.5V4.5C2 4.22386 2.22386 4 2.5 4Z"/>
</svg>