<svg width="12" height="12" viewBox="0 0 12 12" fill="none" xmlns="http://www.w3.org/2000/svg">
<g clip-path="url(#clip0_5822_7709)">
<path fill-rule="evenodd" clip-rule="evenodd" d="M0.5 7.00004C0.776142 7.00004 1 7.2239 1 7.50004V11H4.5C4.77614 11 5 11.2239 5 11.5C5 11.7762 4.77614 12 4.5 12H0.5C0.223858 12 0 11.7762 0 11.5V7.50004C0 7.2239 0.223858 7.00004 0.5 7.00004Z" fill="#0A0A0A"/>
<path fill-rule="evenodd" clip-rule="evenodd" d="M4.85355 7.14648C5.04882 7.34175 5.04882 7.65833 4.85355 7.85359L0.853553 11.8536C0.658291 12.0489 0.341709 12.0489 0.146447 11.8536C-0.0488155 11.6583 -0.0488155 11.3417 0.146447 11.1465L4.14645 7.14648C4.34171 6.95122 4.65829 6.95122 4.85355 7.14648Z" fill="#0A0A0A"/>
<path fill-rule="evenodd" clip-rule="evenodd" d="M7 0.5C7 0.223858 7.22386 0 7.5 0H11.5C11.7761 0 12 0.223858 12 0.5V4.5C12 4.77614 11.7761 5 11.5 5C11.2239 5 11 4.77614 11 4.5V1H7.5C7.22386 1 7 0.776142 7 0.5Z" fill="#0A0A0A"/>
<path fill-rule="evenodd" clip-rule="evenodd" d="M11.8536 0.146447C12.0488 0.341709 12.0488 0.658291 11.8536 0.853553L7.85355 4.85355C7.65829 5.04882 7.34171 5.04882 7.14645 4.85355C6.95118 4.65829 6.95118 4.34171 7.14645 4.14645L11.1464 0.146447C11.3417 -0.0488155 11.6583 -0.0488155 11.8536 0.146447Z" fill="#0A0A0A"/>
</g>
<defs>
<clipPath id="clip0_5822_7709">
<rect width="12" height="12" fill="white"/>
</clipPath>
</defs>
</svg>
