<svg viewBox="0 0 12 12" xmlns="http://www.w3.org/2000/svg">
	<path d="M2.5 1C1.67157 1 1 1.67157 1 2.5C1 3.32843 1.67157 4 2.5 4C3.32843 4 4 3.32843 4 2.5C4 1.67157 3.32843 1 2.5 1ZM0 2.5C0 1.11929 1.11929 0 2.5 0C3.88071 0 5 1.11929 5 2.5C5 3.88071 3.88071 5 2.5 5C1.11929 5 0 3.88071 0 2.5ZM6 1.5C6 1.22386 6.22386 1 6.5 1H11.5C11.7761 1 12 1.22386 12 1.5C12 1.77614 11.7761 2 11.5 2H6.5C6.22386 2 6 1.77614 6 1.5ZM6 4.5C6 4.22386 6.22386 4 6.5 4H11.5C11.7761 4 12 4.22386 12 4.5C12 4.77614 11.7761 5 11.5 5H6.5C6.22386 5 6 4.77614 6 4.5ZM2.5 8C1.67157 8 1 8.67157 1 9.5C1 10.3284 1.67157 11 2.5 11C3.32843 11 4 10.3284 4 9.5C4 8.67157 3.32843 8 2.5 8ZM0 9.5C0 8.11929 1.11929 7 2.5 7C3.88071 7 5 8.11929 5 9.5C5 10.8807 3.88071 12 2.5 12C1.11929 12 0 10.8807 0 9.5ZM6 8.5C6 8.22386 6.22386 8 6.5 8H11.5C11.7761 8 12 8.22386 12 8.5C12 8.77614 11.7761 9 11.5 9H6.5C6.22386 9 6 8.77614 6 8.5ZM6 11.5C6 11.2239 6.22386 11 6.5 11H11.5C11.7761 11 12 11.2239 12 11.5C12 11.7761 11.7761 12 11.5 12H6.5C6.22386 12 6 11.7761 6 11.5Z"/>
</svg>