<svg width="12" height="12" viewBox="0 0 12 12" fill="none" xmlns="http://www.w3.org/2000/svg">
<g clip-path="url(#clip0_5822_7711)">
<path fill-rule="evenodd" clip-rule="evenodd" d="M4.5 12C4.22386 12 4 11.7761 4 11.5L4 8H0.5C0.223858 8 4.44759e-07 7.77614 4.689e-07 7.5C4.93042e-07 7.22386 0.223858 7 0.500001 7L4.5 7C4.77614 7 5 7.22386 5 7.5L5 11.5C5 11.7761 4.77614 12 4.5 12Z" fill="#0A0A0A"/>
<path fill-rule="evenodd" clip-rule="evenodd" d="M0.146447 11.8536C-0.0488156 11.6583 -0.0488156 11.3417 0.146447 11.1464L4.14645 7.14645C4.34171 6.95119 4.65829 6.95119 4.85355 7.14645C5.04882 7.34171 5.04882 7.65829 4.85355 7.85356L0.853553 11.8536C0.658291 12.0488 0.341709 12.0488 0.146447 11.8536Z" fill="#0A0A0A"/>
<path fill-rule="evenodd" clip-rule="evenodd" d="M12 4.5C12 4.77614 11.7761 5 11.5 5L7.5 5C7.22386 5 7 4.77614 7 4.5L7 0.5C7 0.223857 7.22386 -2.41412e-08 7.5 0C7.77614 2.41411e-08 8 0.223857 8 0.5V4L11.5 4C11.7761 4 12 4.22386 12 4.5Z" fill="#0A0A0A"/>
<path fill-rule="evenodd" clip-rule="evenodd" d="M7.14645 4.85355C6.95118 4.65829 6.95118 4.34171 7.14645 4.14645L11.1464 0.146447C11.3417 -0.0488154 11.6583 -0.0488154 11.8536 0.146447C12.0488 0.341709 12.0488 0.658292 11.8536 0.853554L7.85355 4.85355C7.65829 5.04882 7.34171 5.04882 7.14645 4.85355Z" fill="#0A0A0A"/>
</g>
<defs>
<clipPath id="clip0_5822_7711">
<rect width="12" height="12" fill="white"/>
</clipPath>
</defs>
</svg>
