<svg viewBox="0 0 12 12" xmlns="http://www.w3.org/2000/svg">
	<path d="M3.17158 1.17157C3.92172 0.421427 4.93914 0 6.00001 0C7.06087 0 8.07829 0.421427 8.82843 1.17157C9.57858 1.92172 10 2.93913 10 4V6.48189C10.0305 6.87419 10.2001 7.24291 10.4786 7.5214C10.7608 7.80362 11.1357 7.97406 11.534 8.00115C11.8029 8.01945 12.0089 8.24761 11.9997 8.51698C11.9906 8.78636 11.7695 9 11.5 9H0.500005C0.230473 9 0.00944851 8.78636 0.000293626 8.51698C-0.00886126 8.24761 0.197149 8.01945 0.466059 8.00115C0.864266 7.97406 1.23918 7.80362 1.5214 7.5214C1.79988 7.24291 1.96952 6.87419 2.00001 6.48188V4C2.00001 2.93913 2.42143 1.92172 3.17158 1.17157ZM6.00001 1C5.20436 1 4.44129 1.31607 3.87868 1.87868C3.31608 2.44129 3.00001 3.20435 3.00001 4V6.5C3.00001 6.51133 2.99962 6.52265 2.99885 6.53395C2.9623 7.07104 2.76336 7.58173 2.43204 8H9.56797C9.23665 7.58173 9.03771 7.07104 9.00116 6.53395C9.00039 6.52265 9 6.51133 9 6.5V4C9 3.20435 8.68393 2.44129 8.12133 1.87868C7.55872 1.31607 6.79565 1 6.00001 1ZM4.42751 10.0278C4.68828 9.93699 4.97332 10.0747 5.06417 10.3355C5.13185 10.5298 5.2583 10.6981 5.42599 10.8173C5.59368 10.9365 5.79429 11.0005 6.00001 11.0005C6.20572 11.0005 6.40633 10.9365 6.57402 10.8173C6.74171 10.6981 6.86816 10.5298 6.93584 10.3355C7.02669 10.0747 7.31173 9.93699 7.5725 10.0278C7.83327 10.1187 7.97102 10.4037 7.88017 10.6645C7.7442 11.0548 7.49015 11.3931 7.15325 11.6325C6.81634 11.8719 6.4133 12.0005 6.00001 12.0005C5.58671 12.0005 5.18367 11.8719 4.84676 11.6325C4.50986 11.3931 4.25581 11.0548 4.11984 10.6645C4.02899 10.4037 4.16674 10.1187 4.42751 10.0278Z"/>
</svg>