<svg viewBox="0 0 12 12" xmlns="http://www.w3.org/2000/svg">
	<path d="M6.03566 1.02538C6.49138 0.106177 7.71475 -0.0944713 8.44022 0.631L11.4208 3.61162C12.1463 4.33709 11.9457 5.56046 11.0265 6.01618L9.70331 6.67217C9.4559 6.79483 9.15591 6.6937 9.03325 6.4463C8.91059 6.19889 9.01172 5.89889 9.25912 5.77624L10.5823 5.12025C10.8887 4.96834 10.9556 4.56055 10.7137 4.31873L7.73311 1.33811C7.49129 1.09628 7.0835 1.16317 6.93159 1.46957L6.2756 2.79272C6.15295 3.04012 5.85295 3.14125 5.60554 3.01859C5.35814 2.89593 5.25701 2.59594 5.37967 2.34853L6.03566 1.02538ZM5.49063 4.04902C5.57795 4.31099 5.43638 4.59415 5.17441 4.68148L2.75996 5.48633L6.56555 9.29192L7.37037 6.87746C7.4577 6.61548 7.74086 6.4739 8.00283 6.56123C8.2648 6.64855 8.40638 6.93171 8.31906 7.19368L7.2584 10.3757C7.2036 10.54 7.06759 10.6643 6.89893 10.7042C6.73028 10.744 6.55304 10.6936 6.4305 10.5711L1.4808 5.62139C1.35826 5.49885 1.30791 5.32161 1.34773 5.15296C1.38754 4.98431 1.51184 4.84829 1.67623 4.79349L4.85817 3.7328C5.12014 3.64548 5.4033 3.78705 5.49063 4.04902Z"/>
	<path d="M4.58432 7.46754C4.77959 7.6628 4.77959 7.97939 4.58432 8.17465L1.35355 11.4054C1.15829 11.6007 0.841709 11.6007 0.646447 11.4054C0.451184 11.2102 0.451184 10.8936 0.646447 10.6983L3.87722 7.46754C4.07248 7.27228 4.38906 7.27228 4.58432 7.46754Z"/>
	<path d="M1.64645 0.646467C1.84171 0.451205 2.15829 0.451205 2.35355 0.646467L11.3536 9.64647C11.5488 9.84173 11.5488 10.1583 11.3536 10.3536C11.1583 10.5488 10.8417 10.5488 10.6464 10.3536L1.64645 1.35357C1.45118 1.15831 1.45118 0.841729 1.64645 0.646467Z"/>
</svg>