<svg viewBox="0 0 12 12" xmlns="http://www.w3.org/2000/svg">
	<path d="M6 1C3.23858 1 1 3.23858 1 6C1 8.76142 3.23858 11 6 11C8.76142 11 11 8.76142 11 6C11 3.23858 8.76142 1 6 1ZM0 6C0 2.68629 2.68629 0 6 0C9.31371 0 12 2.68629 12 6C12 9.31371 9.31371 12 6 12C2.68629 12 0 9.31371 0 6Z"/>
	<path d="M6 2.2C6.27614 2.2 6.5 2.42386 6.5 2.7V6.7C6.5 6.97614 6.27614 7.2 6 7.2C5.72386 7.2 5.5 6.97614 5.5 6.7V2.7C5.5 2.42386 5.72386 2.2 6 2.2Z"/>
	<path d="M6 9C6.27614 9 6.5 8.77614 6.5 8.5C6.5 8.22386 6.27614 8 6 8C5.72386 8 5.5 8.22386 5.5 8.5C5.5 8.77614 5.72386 9 6 9Z"/>
</svg>