<svg width="12" height="11" viewBox="0 0 12 11" fill="none" xmlns="http://www.w3.org/2000/svg">
<path fill-rule="evenodd" clip-rule="evenodd" d="M3 10.5C3 10.2239 3.22386 10 3.5 10H8.5C8.77614 10 9 10.2239 9 10.5C9 10.7761 8.77614 11 8.5 11H3.5C3.22386 11 3 10.7761 3 10.5Z" fill="#368727"/>
<path fill-rule="evenodd" clip-rule="evenodd" d="M6 7C6.27614 7 6.5 7.22386 6.5 7.5V10.5C6.5 10.7761 6.27614 11 6 11C5.72386 11 5.5 10.7761 5.5 10.5V7.5C5.5 7.22386 5.72386 7 6 7Z" fill="#368727"/>
<path fill-rule="evenodd" clip-rule="evenodd" d="M0 0.5C0 0.223858 0.223858 0 0.5 0H11.5C11.7761 0 12 0.223858 12 0.5V7.5C12 7.77614 11.7761 8 11.5 8H0.5C0.223858 8 0 7.77614 0 7.5V0.5ZM1 1V7H11V1H1Z" fill="#368727"/>
</svg>
