<svg width="12" height="12" viewBox="0 0 12 12" fill="none" xmlns="http://www.w3.org/2000/svg">
<g clip-path="url(#clip0_5435_9438)">
<path fill-rule="evenodd" clip-rule="evenodd" d="M5.22529 0.141388C5.34884 0.261416 5.4019 0.436583 5.36573 0.604993C5.27828 1.01224 5.23421 1.42687 5.23416 1.84251C5.23524 3.43754 5.88868 4.97236 7.0602 6.11471C8.23237 7.2577 9.82924 7.9155 11.5074 7.94031C11.6813 7.94288 11.8414 8.03565 11.9301 8.18526C12.0188 8.33487 12.0234 8.51983 11.9422 8.67365C11.4623 9.58276 10.754 10.3595 9.88399 10.9342C9.01405 11.5088 8.00953 11.8637 6.96247 11.9679C5.91544 12.072 4.85752 11.9222 3.88513 11.5316C2.91266 11.1409 2.05552 10.5213 1.39338 9.72743C0.731137 8.93349 0.285327 7.99085 0.0987064 6.98536C-0.0879285 5.9798 -0.00899383 4.94539 0.327846 3.97741C0.664645 3.00955 1.24796 2.1405 2.02235 1.44876C2.79662 0.757117 3.73736 0.264571 4.75782 0.0143906C4.92512 -0.0266241 5.10175 0.0213603 5.22529 0.141388ZM4.26231 1.22115C3.68291 1.45333 3.14976 1.78254 2.68854 2.19454C2.03847 2.77523 1.55224 3.50158 1.2723 4.30606C0.992394 5.11042 0.927087 5.96868 1.08191 6.80288C1.23676 7.63715 1.60721 8.4226 2.16131 9.08689C2.71551 9.75131 3.43595 10.2735 4.2579 10.6037C5.07993 10.9339 5.97594 11.061 6.86351 10.9728C7.75106 10.8845 8.60003 10.5838 9.33281 10.0998C9.8384 9.76581 10.2772 9.35213 10.6321 8.87883C9.02244 8.67222 7.51749 7.95734 6.36206 6.83068C5.0021 5.50457 4.23543 3.71366 4.23416 1.84319C4.23417 1.63553 4.24358 1.42774 4.26231 1.22115Z" fill="#8AD97C"/>
</g>
<defs>
<clipPath id="clip0_5435_9438">
<rect width="12" height="12" fill="white"/>
</clipPath>
</defs>
</svg>
