<svg width="12" height="12" viewBox="0 0 12 12" fill="none" xmlns="http://www.w3.org/2000/svg">
<path fill-rule="evenodd" clip-rule="evenodd" d="M6 0C6.27614 0 6.5 0.223858 6.5 0.5V1.5C6.5 1.77614 6.27614 2 6 2C5.72386 2 5.5 1.77614 5.5 1.5V0.5C5.5 0.223858 5.72386 0 6 0Z" fill="#368727"/>
<path fill-rule="evenodd" clip-rule="evenodd" d="M10.2426 1.75745C10.4378 1.95271 10.4378 2.26929 10.2426 2.46455L9.53555 3.17155C9.34029 3.36682 9.02371 3.36682 8.82845 3.17155C8.63318 2.97629 8.63318 2.65971 8.82845 2.46445L9.53545 1.75745C9.73071 1.56218 10.0473 1.56218 10.2426 1.75745Z" fill="#368727"/>
<path fill-rule="evenodd" clip-rule="evenodd" d="M10 6C10 5.72386 10.2239 5.5 10.5 5.5H11.5C11.7761 5.5 12 5.72386 12 6C12 6.27614 11.7761 6.5 11.5 6.5H10.5C10.2239 6.5 10 6.27614 10 6Z" fill="#368727"/>
<path fill-rule="evenodd" clip-rule="evenodd" d="M8.82845 8.82845C9.02371 8.63318 9.34029 8.63318 9.53555 8.82845L10.2426 9.53545C10.4378 9.73071 10.4378 10.0473 10.2426 10.2426C10.0473 10.4378 9.73071 10.4378 9.53545 10.2426L8.82845 9.53555C8.63318 9.34029 8.63318 9.02371 8.82845 8.82845Z" fill="#368727"/>
<path fill-rule="evenodd" clip-rule="evenodd" d="M6 10C6.27614 10 6.5 10.2239 6.5 10.5V11.5C6.5 11.7761 6.27614 12 6 12C5.72386 12 5.5 11.7761 5.5 11.5V10.5C5.5 10.2239 5.72386 10 6 10Z" fill="#368727"/>
<path fill-rule="evenodd" clip-rule="evenodd" d="M3.17155 8.82845C3.36682 9.02371 3.36682 9.34029 3.17155 9.53555L2.46455 10.2426C2.26929 10.4378 1.95271 10.4378 1.75745 10.2426C1.56218 10.0473 1.56218 9.73071 1.75745 9.53545L2.46445 8.82845C2.65971 8.63318 2.97629 8.63318 3.17155 8.82845Z" fill="#368727"/>
<path fill-rule="evenodd" clip-rule="evenodd" d="M0 6C0 5.72386 0.223858 5.5 0.5 5.5H1.5C1.77614 5.5 2 5.72386 2 6C2 6.27614 1.77614 6.5 1.5 6.5H0.5C0.223858 6.5 0 6.27614 0 6Z" fill="#368727"/>
<path fill-rule="evenodd" clip-rule="evenodd" d="M1.75745 1.75745C1.95271 1.56218 2.26929 1.56218 2.46455 1.75745L3.17155 2.46445C3.36682 2.65971 3.36682 2.97629 3.17155 3.17155C2.97629 3.36682 2.65971 3.36682 2.46445 3.17155L1.75745 2.46455C1.56218 2.26929 1.56218 1.95271 1.75745 1.75745Z" fill="#368727"/>
<path fill-rule="evenodd" clip-rule="evenodd" d="M6 4C4.89543 4 4 4.89543 4 6C4 7.10457 4.89543 8 6 8C7.10457 8 8 7.10457 8 6C8 4.89543 7.10457 4 6 4ZM3 6C3 4.34315 4.34315 3 6 3C7.65685 3 9 4.34315 9 6C9 7.65685 7.65685 9 6 9C4.34315 9 3 7.65685 3 6Z" fill="#368727"/>
</svg>
