<svg viewBox="0 0 12 12" xmlns="http://www.w3.org/2000/svg">
	<path d="M2 2.5C2 2.22386 2.22386 2 2.5 2H9.5C9.77614 2 10 2.22386 10 2.5V9.5C10 9.77614 9.77614 10 9.5 10C9.22386 10 9 9.77614 9 9.5V3H2.5C2.22386 3 2 2.77614 2 2.5Z"/>
	<path d="M5 0.5C5 0.223858 5.22386 0 5.5 0H11.5C11.7761 0 12 0.223858 12 0.5V6.5C12 6.77614 11.7761 7 11.5 7C11.2239 7 11 6.77614 11 6.5V1H5.5C5.22386 1 5 0.776142 5 0.5Z"/>
	<path d="M0 4.5C0 4.22386 0.223858 4 0.5 4H7.5C7.77614 4 8 4.22386 8 4.5V11.5C8 11.7761 7.77614 12 7.5 12H0.5C0.223858 12 0 11.7761 0 11.5V4.5ZM1 5V11H7V5H1Z"/>
</svg>