<svg viewBox="0 0 12 12" xmlns="http://www.w3.org/2000/svg">
	<path d="M6.03564 1.02538C6.49136 0.106179 7.71473 -0.0944727 8.44021 0.631L11.4208 3.61162C12.1463 4.33709 11.9456 5.56046 11.0264 6.01618L8.25325 7.39107L7.2584 10.3756C7.2036 10.54 7.06759 10.6643 6.89893 10.7041C6.73028 10.7439 6.55304 10.6936 6.4305 10.5711L1.4808 5.62135C1.35826 5.49882 1.30791 5.32158 1.34773 5.15293C1.38754 4.98427 1.51184 4.84826 1.67623 4.79346L4.66075 3.79858L6.03564 1.02538ZM7.7331 1.33811C7.49128 1.09628 7.08349 1.16317 6.93158 1.46957L5.46426 4.4292C5.40509 4.54853 5.30076 4.63933 5.17441 4.68145L2.75996 5.4863L6.56555 9.29189L7.37037 6.87742C7.41249 6.75106 7.50329 6.64673 7.62262 6.58757L10.5823 5.12025C10.8887 4.96834 10.9555 4.56055 10.7137 4.31872L7.7331 1.33811Z"/>
	<path d="M4.58432 7.46751C4.77959 7.66277 4.77959 7.97935 4.58432 8.17462L1.35355 11.4054C1.15829 11.6006 0.841709 11.6006 0.646447 11.4054C0.451184 11.2101 0.451184 10.8935 0.646447 10.6983L3.87722 7.46751C4.07248 7.27225 4.38906 7.27225 4.58432 7.46751Z"/>
</svg>