<svg  viewBox="0 0 12 12" xmlns="http://www.w3.org/2000/svg">
	<path d="M6 0C6.27614 0 6.5 0.223858 6.5 0.5V5.5C6.5 5.77614 6.27614 6 6 6C5.72386 6 5.5 5.77614 5.5 5.5V0.5C5.5 0.223858 5.72386 0 6 0ZM3.41907 1.11727C3.56969 1.34872 3.50417 1.65845 3.27273 1.80907C2.36933 2.39699 1.68011 3.2611 1.30778 4.27261C0.935456 5.28412 0.899963 6.38886 1.20659 7.42218C1.51322 8.4555 2.14556 9.36207 3.00935 10.0068C3.87314 10.6515 4.92214 10.9998 6 10.9998C7.07786 10.9998 8.12686 10.6515 8.99065 10.0068C9.85444 9.36207 10.4868 8.4555 10.7934 7.42218C11.1 6.38886 11.0645 5.28412 10.6922 4.27261C10.3199 3.2611 9.63067 2.39699 8.72727 1.80907C8.49583 1.65845 8.43031 1.34872 8.58093 1.11727C8.73155 0.885827 9.04128 0.820307 9.27273 0.97093C10.3568 1.67644 11.1839 2.71337 11.6307 3.92718C12.0775 5.14099 12.12 6.46668 11.7521 7.70666C11.3841 8.94665 10.6253 10.0345 9.58878 10.8082C8.55223 11.5818 7.29343 11.9998 6 11.9998C4.70657 11.9998 3.44777 11.5818 2.41122 10.8082C1.37467 10.0345 0.615868 8.94665 0.247912 7.70666C-0.120045 6.46668 -0.0774528 5.14099 0.369339 3.92718C0.816131 2.71337 1.6432 1.67644 2.72727 0.97093C2.95872 0.820307 3.26845 0.885827 3.41907 1.11727Z"/>
</svg>