<!-- Logo in menu and welcome screen -->
<svg viewBox="0 0 220 47" xmlns="http://www.w3.org/2000/svg">
	<g fill="#ABAAA8">
		<path d="M17.7459 0C27.9343 0 35.5397 7.37247 35.5397 18.0961C35.5397 28.9154 27.9343 35.8091 17.7459 35.8091C7.60539 35.8091 0 28.5324 0 17.7609C0 7.03736 7.60539 0 17.7459 0ZM17.7459 28.4367C23.2467 28.4367 27.169 24.0802 27.169 18.0961C27.169 12.1119 23.2467 7.42034 17.7459 7.42034C12.293 7.42034 8.37072 11.8725 8.37072 17.7609C8.37072 23.8408 12.293 28.4367 17.7459 28.4367Z"/>
		<path d="M52.0453 16.1333C49.9885 16.1333 48.5536 17.0907 46.9273 18.862V26.6654C48.3622 28.1973 50.0364 29.2026 52.0932 29.2026C55.6806 29.2026 57.8809 26.3781 57.8809 22.5483C57.8809 18.862 55.585 16.1333 52.0453 16.1333ZM47.0229 32.6974H46.9273V46.3412H39.4175V10.4364H46.3533L46.6403 13.8353H46.7359C48.2666 11.5853 50.6104 9.76613 54.0543 9.76613C60.3682 9.76613 65.4863 14.5056 65.4863 22.4525C65.4863 30.3516 60.1769 35.5219 53.8152 35.5219C51.1365 35.5219 48.7927 34.5644 47.0229 32.6974Z"/>
		<path d="M173.234 14.506H173.329C174.621 11.2985 176.917 9.7666 180.361 9.7666H181.413V16.7561C180.6 16.5646 179.691 16.4688 178.83 16.4688C176.486 16.4688 174.669 17.5699 173.521 19.6764V34.8522H166.011V16.6603C166.011 14.6497 165.868 12.3518 165.485 10.4368H172.851C173.138 11.8251 173.234 12.9741 173.234 14.506Z"/>
		<path d="M112.082 9.23811L105.816 34.8503H97.1106L87.8789 0.956055H96.3931L102.037 25.4671H102.181L107.777 0.956055H116.674L122.51 25.4671H122.653L128.345 0.956055H136.525L127.15 34.8503H118.444L112.274 9.23811H112.082Z"/>
		<path d="M148.536 9.52637C155.758 9.52637 161.977 14.3616 161.977 22.6915C161.977 30.8778 155.758 35.713 148.536 35.713C141.265 35.713 135.095 30.8778 135.095 22.5957C135.095 14.3616 141.265 9.52637 148.536 9.52637ZM148.536 29.0586C151.98 29.0586 154.371 26.282 154.371 22.6915C154.371 19.0053 151.932 16.2286 148.536 16.2286C145.044 16.2286 142.7 19.0053 142.7 22.5479C142.7 26.2341 145.092 29.0586 148.536 29.0586Z"/>
		<path d="M86.1861 10.5521C86.1666 10.5449 86.1471 10.5378 86.1275 10.5307C84.333 9.88128 82.1271 9.53223 79.5259 9.53223C75.2209 9.53223 69.3854 11.878 69.3854 17.527C69.3854 22.3144 72.5902 23.9899 76.7038 24.9953C79.6694 25.7612 81.5827 26.4793 81.5827 28.0113C81.5827 29.4475 80.3869 30.1177 78.8084 30.1177C75.9384 30.1177 71.5857 28.7772 69.3375 26.9102V33.5167C71.9683 34.9529 75.4123 35.7189 78.8562 35.7189C83.4003 35.7189 89.1881 33.5167 89.1881 27.5325C89.1881 23.4154 86.1746 21.1654 81.2957 20.0165C77.8517 19.2026 76.8473 18.7239 76.8473 17.3356C76.8473 16.043 77.8517 15.3728 79.6694 15.3728C82.5244 15.3728 86.1841 16.5571 88.1999 17.8891L86.1861 10.5521Z"/>
		<path d="M220 0.875H209.437L202.027 9.42845L207.31 15.5271L220 0.875Z"/>
		<path d="M202.027 26.1641L209.437 34.7198H220L207.31 20.0654L202.027 26.1641Z"/>
	</g>

	<path fill="#368727" d="M190.687 0.875H180.124L194.781 17.7983L180.124 34.7216H190.687L205.344 17.7983L190.687 0.875Z"/>
</svg>